<svg id="Layer_1" data-name="Layer 1" xmlns="http://www.w3.org/2000/svg" xmlns:xlink="http://www.w3.org/1999/xlink" viewBox="0 0 100 100"><defs><style>.cls-1{fill:url(#linear-gradient);}.cls-2{fill:#fff;}</style><linearGradient id="linear-gradient" x1="50" x2="50" y2="100" gradientUnits="userSpaceOnUse"><stop offset="0" stop-color="#61a644"/><stop offset="0.24" stop-color="#488653"/><stop offset="0.57" stop-color="#2d6264"/><stop offset="0.83" stop-color="#1b4b6f"/><stop offset="1" stop-color="#154373"/></linearGradient></defs><title>Groene Baten Planner</title><rect class="cls-1" width="100" height="100"/><path class="cls-2" d="M12.76,70.33h2.72v4.13a12.14,12.14,0,0,1-2.58.25,4.11,4.11,0,0,1-4.25-4.49,4.52,4.52,0,0,1,4.71-4.88,9.44,9.44,0,0,1,2,.19l-.13.86a10.4,10.4,0,0,0-1.87-.18,3.53,3.53,0,0,0-3.66,3.84c0,2.62,1.62,3.8,3.38,3.8a10.41,10.41,0,0,0,1.48-.09V71.2H12.76Z"/><path class="cls-2" d="M18.5,74.62h-1V65.43h2.35c2,0,3.06.94,3.06,2.46a2.57,2.57,0,0,1-1.79,2.61l2.43,4.12H22.46L20.19,70.7H18.5Zm0-4.77h1.36c1.28,0,2.1-.56,2.1-1.82s-.69-1.76-2.14-1.76H18.5Z"/><path class="cls-2" d="M28.19,65.3c2.11,0,3.69,1.58,3.69,4.65S30.17,74.74,28,74.74s-3.7-1.58-3.7-4.65S26,65.3,28.19,65.3Zm-.13,8.58c1.34,0,2.83-1,2.83-3.79s-1.29-3.92-2.81-3.92c-1.34,0-2.83,1-2.83,3.78S26.54,73.88,28.06,73.88Z"/><path class="cls-2" d="M33.57,65.43H38v.87H34.53v3.16h3.14v.87H34.53v3.42h3.53v.87H33.57Z"/><path class="cls-2" d="M40.88,66.46h-.06v8.16h-.91V65.43H41.4l3.83,8.15h.07V65.43h.9v9.19H44.72Z"/><path class="cls-2" d="M48.52,65.43H53v.87H49.49v3.16h3.13v.87H49.49v3.42H53v.87H48.52Z"/><path class="cls-2" d="M56.94,74.62V65.43h2.33c2,0,3,.91,3,2.3a1.92,1.92,0,0,1-1.26,2v0a2,2,0,0,1,1.63,2.11c0,1.69-1.1,2.73-3.2,2.73Zm1-8.35v3.19h1.29c1.48,0,2.1-.54,2.1-1.66,0-1-.62-1.53-2.12-1.53Zm0,4v3.48h1.54c1.45,0,2.24-.66,2.24-1.78s-.63-1.7-2.51-1.7Z"/><path class="cls-2" d="M70.62,74.62H69.57L68.79,72H65.11l-.78,2.58h-1l2.93-9.19h1.52ZM67,66.21h-.12l-1.54,5h3.16Z"/><path class="cls-2" d="M73.71,74.62h-1V66.3H70v-.87h6.4v.87H73.71Z"/><path class="cls-2" d="M77.79,65.43h4.45v.87H78.76v3.16h3.13v.87H78.76v3.42h3.52v.87H77.79Z"/><path class="cls-2" d="M85.1,66.46H85v8.16h-.9V65.43h1.48l3.83,8.15h.07V65.43h.91v9.19H88.94Z"/><path class="cls-2" d="M26,89.62H24.32V80.43H27.2c2.06,0,3.19,1.13,3.19,2.81A3,3,0,0,1,27,86.4a8.07,8.07,0,0,1-1-.06ZM26,85a5.37,5.37,0,0,0,.8,0,1.61,1.61,0,0,0,1.84-1.68c0-1.05-.57-1.6-1.69-1.6H26Z"/><path class="cls-2" d="M31.61,80.43h1.67v7.8h3.18v1.39H31.61Z"/><path class="cls-2" d="M44.44,89.62H42.52l-.59-2.1H38.8l-.58,2.1H36.48l2.73-9.19h2.53Zm-4-7.71h-.09l-1.19,4.26h2.43Z"/><path class="cls-2" d="M47,82.19H47v7.43H45.42V80.43H48l2.7,7.42h.06V80.43h1.55v9.19H49.72Z"/><path class="cls-2" d="M55.94,82.19h-.06v7.43H54.33V80.43H57l2.7,7.42h.05V80.43h1.55v9.19H58.64Z"/><path class="cls-2" d="M63.25,80.43h4.81v1.39H64.93V84.2h2.88v1.38H64.93v2.65H68.1v1.39H63.25Z"/><path class="cls-2" d="M71.37,89.62H69.69V80.43h2.69c2.29,0,3.42,1,3.42,2.56a2.78,2.78,0,0,1-1.66,2.65l2.43,4h-2l-2.1-3.52H71.37Zm0-4.84h1a1.51,1.51,0,0,0,1.66-1.59c0-.94-.53-1.42-1.8-1.42h-.88Z"/><path class="cls-2" d="M61.57,50C67.42,50,72,47.45,72,44.25V41.53c0-3.21-4.58-5.72-10.43-5.72s-10.43,2.51-10.43,5.72v2.72a3.66,3.66,0,0,0,.65,2,3.54,3.54,0,0,0-.65,2V51c0,3.21,4.58,5.72,10.43,5.72S72,54.16,72,51V48.23a3.42,3.42,0,0,0,0-.45c-.53.66-3.41,3.82-10.14,3.82-6,0-8-2.87-8.24-3.26-.09-.16-.15-.32-.06-.42A14.93,14.93,0,0,0,61.57,50Zm-8.41-8.2c0-2.12,3.77-3.83,8.41-3.83S70,39.65,70,41.77s-3.77,3.84-8.42,3.84S53.16,43.89,53.16,41.77Z"/><path class="cls-2" d="M60,43.06v.5h1.16v-.41h1v.4H63.3V43.1c2.08-.22,3.07-.94,3.07-2a2.09,2.09,0,0,0-.23-1H64.61a2.23,2.23,0,0,1,.21.94c0,.46-.44.83-1.52,1V40.73H62.17v1.41h-1V40.73H60V42c-1-.16-1.58-.49-1.58-1a2.32,2.32,0,0,1,.18-.86H57a2,2,0,0,0-.18.84C56.78,42,57.86,42.79,60,43.06Z"/><path class="cls-2" d="M54.18,34.89A5.17,5.17,0,0,1,57,30.41s0,.09,0,.15a7.23,7.23,0,0,0-1.54,3.8,19.7,19.7,0,0,1,6.43-1,22.12,22.12,0,0,1,2.74.18,7,7,0,0,0,.83-3.35,7.26,7.26,0,0,0-1.72-4.79A6.66,6.66,0,0,0,64.64,22a6.74,6.74,0,0,0-4.84-6.46,5.75,5.75,0,0,0-9-1.53,5.74,5.74,0,0,0-9.27,4.54v0A5.07,5.07,0,0,0,37.27,25a6.52,6.52,0,0,0,8.66,9.75c.69,1.21,1.27,2,1.18,3.37l-.17,2.68a6.48,6.48,0,0,1,1.85,1.74V41.46C48.79,38.76,50.92,36.37,54.18,34.89ZM47.87,32a6.5,6.5,0,0,0,.34-1.54A5.74,5.74,0,0,0,51.31,32c-.39.66-.72,1.29-1,1.78a.65.65,0,0,1-1.12.1Z"/><path class="cls-2" d="M44.5,41.88a3.88,3.88,0,0,0-3.24,2.4,3.17,3.17,0,0,0-3.21,0A5.28,5.28,0,0,0,36,47a3.74,3.74,0,0,0-2.84.47c-.78.54-1.37,1.44-1.6,3.52h9.06a5.22,5.22,0,0,1,.36-2.61A6.46,6.46,0,0,0,42.56,51h.06a16.89,16.89,0,0,1,1.09-4.4c-.24,3.1.87,4.35.87,4.35l0,0h4.24V44.41C47.86,43.1,46.46,41.75,44.5,41.88Z"/></svg>