<svg id="Layer_1" data-name="Layer 1" xmlns="http://www.w3.org/2000/svg" viewBox="0 0 300 300"><defs><style>.cls-1{fill:#fff;}</style></defs><title>Artboard 1</title><path class="cls-1" d="M186.52,147.33c18.06,0,32.2-7.76,32.2-17.66v-8.41c0-9.89-14.14-17.63-32.2-17.63s-32.21,7.74-32.21,17.63v8.41a11.19,11.19,0,0,0,2,6.17,10.93,10.93,0,0,0-2,6.12v8.41c0,9.9,14.15,17.66,32.21,17.66s32.2-7.76,32.2-17.66V142a10.71,10.71,0,0,0-.12-1.39c-1.65,2.06-10.52,11.82-31.32,11.82-18.44,0-24.79-8.87-25.45-10.08-.27-.49-.47-1-.18-1.3C167.51,144.89,176.4,147.33,186.52,147.33Zm-26-25.3c0-6.54,11.64-11.85,26-11.85s26,5.31,26,11.85-11.64,11.85-26,11.85S160.53,128.57,160.53,122Z"/><path class="cls-1" d="M181.58,126v1.56h3.58v-1.28c.7,0,1.54,0,2.34,0h.88v1.24h3.49v-1.42c6.4-.69,9.45-2.91,9.45-6.14a6.07,6.07,0,0,0-.71-3.09h-4.73a6.45,6.45,0,0,1,.67,2.88c0,1.42-1.37,2.57-4.68,3.07V118.8h-3.49v4.36c-.44,0-.88,0-1.41,0s-1.2,0-1.81,0V118.8h-3.58v4c-3.22-.48-4.9-1.51-4.9-3.16a7.21,7.21,0,0,1,.57-2.66h-5a6.18,6.18,0,0,0-.53,2.58C171.73,122.86,175,125.17,181.58,126Z"/><path class="cls-1" d="M35.77,210.23h8.42V223a38.12,38.12,0,0,1-8,.78c-7.08,0-13.12-4.62-13.12-13.87,0-10.85,7.69-15,14.55-15a30.54,30.54,0,0,1,6,.57l-.39,2.67a32.09,32.09,0,0,0-5.78-.56c-5.53,0-11.31,3.42-11.31,11.85,0,8.08,5,11.71,10.45,11.71a31.51,31.51,0,0,0,4.57-.26v-7.91H35.77Z"/><path class="cls-1" d="M53.51,223.46h-3V195.1h7.26c6.08,0,9.45,2.9,9.45,7.61a7.94,7.94,0,0,1-5.53,8l7.51,12.71H65.73l-7-12.1H53.51Zm0-14.7H57.7c4,0,6.47-1.73,6.47-5.62,0-3.54-2.11-5.44-6.6-5.44H53.51Z"/><path class="cls-1" d="M83.42,194.71c6.52,0,11.4,4.89,11.4,14.36s-5.27,14.78-12.13,14.78c-6.52,0-11.44-4.89-11.44-14.35S76.56,194.71,83.42,194.71ZM83,221.17c4.14,0,8.71-3,8.71-11.67,0-9-4-12.11-8.67-12.11-4.15,0-8.72,3-8.72,11.68C74.36,218,78.33,221.17,83,221.17Z"/><path class="cls-1" d="M100,195.1h13.73v2.68H103v9.77h9.67v2.68H103v10.55H113.9v2.68H100Z"/><path class="cls-1" d="M122.61,198.3h-.17v25.16h-2.8V195.1h4.57L136,220.26h.21V195.1h2.81v28.36h-4.57Z"/><path class="cls-1" d="M146.22,195.1H160v2.68H149.2v9.77h9.67v2.68H149.2v10.55h10.88v2.68H146.22Z"/><path class="cls-1" d="M172.21,223.46V195.1h7.21c6.21,0,9.28,2.81,9.28,7.09,0,3.33-1.38,5.28-3.89,6.23v.13a6.16,6.16,0,0,1,5.05,6.48c0,5.23-3.41,8.43-9.88,8.43Zm3-25.76v9.85h4c4.57,0,6.47-1.68,6.47-5.14,0-3-1.9-4.71-6.52-4.71Zm0,12.45v10.72h4.74c4.49,0,6.91-2,6.91-5.49s-1.94-5.23-7.73-5.23Z"/><path class="cls-1" d="M214.47,223.46h-3.24l-2.42-8H197.46l-2.42,8h-3.11L201,195.1h4.7Zm-11.05-25.94H203l-4.75,15.39H208Z"/><path class="cls-1" d="M224,223.46h-3V197.78h-8.41V195.1h19.77v2.68H224Z"/><path class="cls-1" d="M236.61,195.1h13.72v2.68H239.58v9.77h9.67v2.68h-9.67v10.55h10.88v2.68H236.61Z"/><path class="cls-1" d="M259.18,198.3H259v25.16H256.2V195.1h4.58l11.82,25.16h.22V195.1h2.81v28.36h-4.58Z"/><path class="cls-1" d="M76.67,269.78H71.49V241.43h8.89c6.35,0,9.84,3.5,9.84,8.68,0,6.06-4.14,9.73-10.44,9.73a23.53,23.53,0,0,1-3.11-.17Zm0-14.26a15.65,15.65,0,0,0,2.46.17c3.54,0,5.7-1.86,5.7-5.19s-1.77-4.92-5.23-4.92H76.67Z"/><path class="cls-1" d="M94,241.43h5.18V265.5H109v4.28H94Z"/><path class="cls-1" d="M133.6,269.78h-5.91l-1.82-6.48H116.2l-1.81,6.48H109l8.42-28.35h7.81ZM121.21,246h-.3l-3.67,13.14h7.51Z"/><path class="cls-1" d="M141.58,246.87h-.17v22.91h-4.79V241.43h8.12l8.33,22.91h.17V241.43H158v28.35h-8.11Z"/><path class="cls-1" d="M169.12,246.87H169v22.91h-4.79V241.43h8.11l8.33,22.91h.18V241.43h4.79v28.35h-8.12Z"/><path class="cls-1" d="M191.7,241.43h14.84v4.28h-9.66v7.34h8.89v4.28h-8.89v8.17h9.79v4.28h-15Z"/><path class="cls-1" d="M216.77,269.78h-5.18V241.43h8.29c7.08,0,10.58,3.24,10.58,7.91a8.6,8.6,0,0,1-5.14,8.17l7.51,12.27h-6l-6.48-10.85h-3.54Zm0-14.91h3.15c3.11,0,5.14-1.82,5.14-4.93,0-2.89-1.64-4.36-5.57-4.36h-2.72Z"/><path class="cls-1" d="M125.18,105.24a20,20,0,0,0,13-4.8c2.14,3.72,3.93,6.09,3.65,10.39l-.54,8.3a20,20,0,0,1,5.72,5.35v-3.41c0-8.35,6.56-15.75,16.65-20.33a16,16,0,0,1,8.79-13.81c.16,0,.16.29,0,.46a22.49,22.49,0,0,0-4.79,11.76,60.57,60.57,0,0,1,19.91-3.25,64.74,64.74,0,0,1,8.46.56,21.92,21.92,0,0,0,2.54-10.37,22.26,22.26,0,0,0-5.31-14.77A20.76,20.76,0,0,0,181,41.1a17.73,17.73,0,0,0-27.89-4.71,17.75,17.75,0,0,0-28.65,14s0,.07,0,.1a15.63,15.63,0,0,0-13,19.82,20.15,20.15,0,0,0,13.72,34.91Zm20.07-18.31a17.77,17.77,0,0,0,9.59,4.83c-1.23,2-2.23,4-3,5.5a2,2,0,0,1-3.44.3l-4.23-5.87A19.7,19.7,0,0,0,145.25,86.93Z"/><path class="cls-1" d="M122.79,142.46a19.65,19.65,0,0,0,5,8.06H128c.07-5.22,3.36-13.58,3.36-13.58-.75,9.58,2.69,13.41,2.69,13.41l-.09.17H147V130.16c-2.87-4.06-7.21-8.2-13.23-7.81-7.43.49-10,7.42-10,7.42a9.84,9.84,0,0,0-9.92-.12c-4.61,2.52-6.45,8.56-6.45,8.56a11.47,11.47,0,0,0-8.77,1.43c-2.42,1.67-4.23,4.47-4.93,10.88h28A16,16,0,0,1,122.79,142.46Z"/></svg>