<?xml version="1.0" encoding="utf-8"?>
<!-- Generator: Adobe Illustrator 23.0.3, SVG Export Plug-In . SVG Version: 6.00 Build 0)  -->
<svg version="1.1" id="Layer_1" xmlns="http://www.w3.org/2000/svg" xmlns:xlink="http://www.w3.org/1999/xlink" x="0px" y="0px"
	 viewBox="0 0 200 200" style="enable-background:new 0 0 200 200;" xml:space="preserve">
<style type="text/css">
	.st0{opacity:0.16;fill:#61A60E;}
	.st1{opacity:0.24;fill:#61A60E;}
	.st2{opacity:0.32;fill:#61A60E;}
	.st3{opacity:0.4;fill:#61A60E;}
	.st4{opacity:0.48;fill:#61A60E;}
	.st5{opacity:0.56;fill:#61A60E;}
	.st6{opacity:0.64;fill:#61A60E;}
	.st7{opacity:0.72;fill:#61A60E;}
	.st8{opacity:0.8;fill:#61A60E;}
	.st9{opacity:0.9;fill:#61A60E;}
	.st10{fill:#61A60E;}
	.st11{opacity:8.000000e-02;fill:#61A60E;}
</style>
<g transform="rotate(0 50 50)">
	<path class="st0" d="M97.9,48h4.2c1.1,0,1.9,0.4,1.9,1V71c0,0.5-0.9,1-1.9,1h-4.2c-1.1,0-1.9-0.4-1.9-1V49C96,48.4,96.9,48,97.9,48
		z	">
<animate  accumulate="none" additive="replace" attributeName="opacity" begin="-1.0999999999999999s" calcMode="linear" dur="1.2s" fill="remove" keyTimes="0;1" repeatCount="indefinite" restart="always" values="1;0">
			</animate>
	</path>
</g>
<g transform="rotate(30 50 50)">
	<path class="st1" d="M116.2,16.3h4.2c1.1,0,1.9,0.4,1.9,1l0,22.1c0,0.5-0.9,1-1.9,1h-4.2c-1.1,0-1.9-0.4-1.9-1V17.3
		C114.3,16.7,115.2,16.3,116.2,16.3z	">
<animate  accumulate="none" additive="replace" attributeName="opacity" begin="-1s" calcMode="linear" dur="1.2s" fill="remove" keyTimes="0;1" repeatCount="indefinite" restart="always" values="1;0">
			</animate>
	</path>
</g>
<g transform="rotate(60 50 50)">
	<path class="st2" d="M116.2-20.3l4.2,0c1.1,0,1.9,0.4,1.9,1V2.7c0,0.5-0.9,1-1.9,1l-4.2,0c-1.1,0-1.9-0.4-1.9-1l0-22.1
		C114.3-19.9,115.2-20.3,116.2-20.3z	">
<animate  accumulate="none" additive="replace" attributeName="opacity" begin="-0.8999999999999999s" calcMode="linear" dur="1.2s" fill="remove" keyTimes="0;1" repeatCount="indefinite" restart="always" values="1;0">
			</animate>
	</path>
</g>
<g transform="rotate(90 50 50)">
	<path class="st3" d="M97.9-52h4.2c1.1,0,1.9,0.4,1.9,1V-29c0,0.5-0.9,1-1.9,1h-4.2c-1.1,0-1.9-0.4-1.9-1V-51
		C96-51.6,96.9-52,97.9-52z	">
<animate  accumulate="none" additive="replace" attributeName="opacity" begin="-0.7999999999999999s" calcMode="linear" dur="1.2s" fill="remove" keyTimes="0;1" repeatCount="indefinite" restart="always" values="1;0">
			</animate>
	</path>
</g>
<g transform="rotate(120 50 50)">
	<path class="st4" d="M66.2-70.3h4.2c1.1,0,1.9,0.4,1.9,1v22.1c0,0.5-0.9,1-1.9,1h-4.2c-1.1,0-1.9-0.4-1.9-1l0-22.1
		C64.3-69.9,65.2-70.3,66.2-70.3z	">
<animate  accumulate="none" additive="replace" attributeName="opacity" begin="-0.7000000000000001s" calcMode="linear" dur="1.2s" fill="remove" keyTimes="0;1" repeatCount="indefinite" restart="always" values="1;0">
			</animate>
	</path>
</g>
<g transform="rotate(150 50 50)">
	<path class="st5" d="M29.6-70.3l4.2,0c1.1,0,1.9,0.4,1.9,1l0,22.1c0,0.5-0.9,1-1.9,1h-4.2c-1.1,0-1.9-0.4-1.9-1l0-22.1
		C27.7-69.9,28.6-70.3,29.6-70.3z	">
<animate  accumulate="none" additive="replace" attributeName="opacity" begin="-0.6s" calcMode="linear" dur="1.2s" fill="remove" keyTimes="0;1" repeatCount="indefinite" restart="always" values="1;0">
			</animate>
	</path>
</g>
<g transform="rotate(180 50 50)">
	<path class="st6" d="M-2.1-52h4.2C3.1-52,4-51.6,4-51V-29c0,0.5-0.9,1-1.9,1h-4.2C-3.1-28-4-28.4-4-29V-51C-4-51.6-3.1-52-2.1-52z	
		">
<animate  accumulate="none" additive="replace" attributeName="opacity" begin="-0.5s" calcMode="linear" dur="1.2s" fill="remove" keyTimes="0;1" repeatCount="indefinite" restart="always" values="1;0">
			</animate>
	</path>
</g>
<g transform="rotate(210 50 50)">
	<path class="st7" d="M-20.4-20.3h4.2c1.1,0,1.9,0.4,1.9,1l0,22.1c0,0.5-0.9,1-1.9,1l-4.2,0c-1.1,0-1.9-0.4-1.9-1l0-22.1
		C-22.3-19.9-21.4-20.3-20.4-20.3z	">
<animate  accumulate="none" additive="replace" attributeName="opacity" begin="-0.39999999999999997s" calcMode="linear" dur="1.2s" fill="remove" keyTimes="0;1" repeatCount="indefinite" restart="always" values="1;0">
			</animate>
	</path>
</g>
<g transform="rotate(240 50 50)">
	<path class="st8" d="M-20.4,16.3l4.2,0c1.1,0,1.9,0.4,1.9,1l0,22.1c0,0.5-0.9,1-1.9,1h-4.2c-1.1,0-1.9-0.4-1.9-1l0-22.1
		C-22.3,16.7-21.4,16.3-20.4,16.3z	">
<animate  accumulate="none" additive="replace" attributeName="opacity" begin="-0.3s" calcMode="linear" dur="1.2s" fill="remove" keyTimes="0;1" repeatCount="indefinite" restart="always" values="1;0">
			</animate>
	</path>
</g>
<g transform="rotate(270 50 50)">
	<path class="st9" d="M-2.1,48h4.2C3.1,48,4,48.4,4,49V71c0,0.5-0.9,1-1.9,1h-4.2C-3.1,72-4,71.6-4,71V49C-4,48.4-3.1,48-2.1,48z	">
<animate  accumulate="none" additive="replace" attributeName="opacity" begin="-0.19999999999999998s" calcMode="linear" dur="1.2s" fill="remove" keyTimes="0;1" repeatCount="indefinite" restart="always" values="1;0">
			</animate>
	</path>
</g>
<g transform="rotate(300 50 50)">
	<path class="st10" d="M29.6,66.3h4.2c1.1,0,1.9,0.4,1.9,1l0,22.1c0,0.5-0.9,1-1.9,1h-4.2c-1.1,0-1.9-0.4-1.9-1l0-22.1
		C27.7,66.7,28.6,66.3,29.6,66.3z	">
<animate  accumulate="none" additive="replace" attributeName="opacity" begin="-0.09999999999999999s" calcMode="linear" dur="1.2s" fill="remove" keyTimes="0;1" repeatCount="indefinite" restart="always" values="1;0">
			</animate>
	</path>
</g>
<g transform="rotate(330 50 50)">
	<path class="st11" d="M66.2,66.3h4.2c1.1,0,1.9,0.4,1.9,1l0,22.1c0,0.5-0.9,1-1.9,1h-4.2c-1.1,0-1.9-0.4-1.9-1V67.3
		C64.3,66.7,65.2,66.3,66.2,66.3z	">
<animate  accumulate="none" additive="replace" attributeName="opacity" begin="0s" calcMode="linear" dur="1.2s" fill="remove" keyTimes="0;1" repeatCount="indefinite" restart="always" values="1;0">
			</animate>
	</path>
</g>
</svg>
