<svg id="Layer_1" data-name="Layer 1" xmlns="http://www.w3.org/2000/svg" viewBox="0 0 50 32"><defs><style>.cls-1{fill:#fff;}</style></defs><title>Referentie</title><path d="M35.49,18.68,25,26.28l-10.53-7.6-1.69,1.26a.36.36,0,0,0,0,.58l11.68,8.69a.92.92,0,0,0,1.09,0l11.67-8.69a.36.36,0,0,0,0-.58Z"/><path d="M24.42,24.18a.92.92,0,0,0,1.09,0l11.67-8.69a.36.36,0,0,0,0-.58L25.51,6.22a.92.92,0,0,0-1.09,0L12.74,14.91a.36.36,0,0,0,0,.58Z"/><path class="cls-1" d="M24.67,17l3.43,2.53-1.66,1.07-9.18-6.77,2.5-1.62a5.62,5.62,0,0,1,3.14-1,4.44,4.44,0,0,1,2.65.85,3.19,3.19,0,0,1,1.2,1.45A1.85,1.85,0,0,1,26.7,15l6.17,1.47-2,1.26-5.26-1.35Zm-4.34-3.16L23.23,16l.9-.57a1.12,1.12,0,0,0,.62-1A1.49,1.49,0,0,0,24,13.35a2.32,2.32,0,0,0-1.38-.5,2.82,2.82,0,0,0-1.55.53Z"/></svg>