<svg id="Layer_1" data-name="Layer 1" xmlns="http://www.w3.org/2000/svg" viewBox="0 0 50 32"><title>Resultaten</title><path d="M33.32,1.94H16.68a2.22,2.22,0,0,0-2.22,2.22v23.3a2.21,2.21,0,0,0,2.22,2.22H33.32a2.21,2.21,0,0,0,2.22-2.22V4.16A2.22,2.22,0,0,0,33.32,1.94ZM19.45,26.35a1.67,1.67,0,0,1,0-3.33,1.67,1.67,0,1,1,0,3.33Zm0-5.54a1.67,1.67,0,1,1,1.67-1.67A1.66,1.66,0,0,1,19.45,20.81Zm0-5.55a1.67,1.67,0,1,1,1.67-1.67A1.66,1.66,0,0,1,19.45,15.26ZM25,26.35a1.67,1.67,0,1,1,1.66-1.66A1.66,1.66,0,0,1,25,26.35Zm0-5.54a1.67,1.67,0,1,1,1.66-1.67A1.66,1.66,0,0,1,25,20.81Zm0-5.55a1.67,1.67,0,1,1,1.66-1.67A1.66,1.66,0,0,1,25,15.26Zm7.21,9.43a1.67,1.67,0,0,1-3.33,0V19.14a1.67,1.67,0,0,1,3.33,0Zm-1.66-9.43a1.67,1.67,0,1,1,0-3.33,1.67,1.67,0,0,1,0,3.33Zm2.22-5.55H17.23v-5H32.77Z"/></svg>