<svg id="Layer_1" data-name="Layer 1" xmlns="http://www.w3.org/2000/svg" viewBox="0 0 50 32"><title>Settings</title><path d="M38.24,15.58l-2.47-1.05a1.87,1.87,0,0,1-1-.91l-.14-.33a1.9,1.9,0,0,1,0-1.33l.93-2.49a1.19,1.19,0,0,0-.26-1.18l-1.12-1.1A1.23,1.23,0,0,0,33,7l-2.51,1A1.9,1.9,0,0,1,29.2,8l-.36-.15a1.91,1.91,0,0,1-.94-.94l-1.14-2.4a1.22,1.22,0,0,0-1-.66h-1.6a1.19,1.19,0,0,0-1,.66l-1.07,2.4a1.85,1.85,0,0,1-.92.95L20.78,8a2,2,0,0,1-1.33,0L16.88,7a1.23,1.23,0,0,0-1.19.25l-1.13,1.1a1.16,1.16,0,0,0-.24,1.18l1,2.43a1.88,1.88,0,0,1,0,1.32l-.14.34a2,2,0,0,1-1,.92l-2.47,1.12a1.21,1.21,0,0,0-.67,1v1.55a1.18,1.18,0,0,0,.67,1l2.48,1.05a1.89,1.89,0,0,1,1,.91l.14.33a2,2,0,0,1,0,1.33l-.94,2.48a1.18,1.18,0,0,0,.26,1.18l1.13,1.11a1.21,1.21,0,0,0,1.18.24l2.51-1a1.9,1.9,0,0,1,1.33,0l.36.15a2,2,0,0,1,.94.94l1.14,2.4a1.22,1.22,0,0,0,1,.66h1.61a1.18,1.18,0,0,0,1-.67L27.94,28a1.89,1.89,0,0,1,.92-.95l.37-.14a2,2,0,0,1,1.33,0l2.56.92a1.23,1.23,0,0,0,1.19-.25l1.13-1.1a1.16,1.16,0,0,0,.24-1.18l-1-2.43a1.88,1.88,0,0,1,0-1.32l.14-.33a1.91,1.91,0,0,1,.95-.93l2.48-1.12a1.21,1.21,0,0,0,.67-1V16.58A1.17,1.17,0,0,0,38.24,15.58ZM25,21.78a4.37,4.37,0,1,1,4.46-4.37A4.42,4.42,0,0,1,25,21.78Z"/></svg>