<svg id="Layer_1" data-name="Layer 1" xmlns="http://www.w3.org/2000/svg" viewBox="0 0 50 32"><title>Scenario</title><path d="M44.48,9,40.75,5.24a1.69,1.69,0,0,0-2.39,0L25.1,18.5a7,7,0,0,1,4,4.4,10,10,0,0,0-5.27-3.15,1.76,1.76,0,0,0-.21.38l-1,6.37a.43.43,0,0,0,.54.55l6.38-1a1.39,1.39,0,0,0,.53-.33L44.48,11.37A1.69,1.69,0,0,0,44.48,9Z"/><rect x="9.45" y="11.77" width="1" height="1"/><rect x="10.45" y="12.77" width="8" height="8"/><rect x="10.45" y="21.77" width="8" height="8"/><rect x="18.45" y="11.77" width="1" height="1"/><rect x="27.45" y="11.77" width="1" height="1"/><rect x="36.45" y="11.77" width="1" height="1"/><rect x="9.45" y="20.77" width="1" height="1"/><rect x="18.45" y="20.77" width="1" height="1"/><rect x="36.45" y="20.77" width="1" height="1"/><rect x="9.45" y="29.77" width="1" height="1"/><rect x="18.45" y="29.77" width="1" height="1"/><rect x="27.45" y="29.77" width="1" height="1"/><rect x="36.45" y="29.77" width="1" height="1"/></svg>